<svg xmlns="http://www.w3.org/2000/svg" viewBox="0 0 300 60" width="100%" height="100%">
  <rect width="300" height="60" fill="transparent"/>
  <!-- Standard Barcode Layout with variable width bars -->
  <g fill="black">
    <rect x="0" y="0" width="4" height="60"/>
    <rect x="6" y="0" width="2" height="60"/>
    <rect x="12" y="0" width="6" height="60"/>
    <rect x="22" y="0" width="2" height="60"/>
    <rect x="26" y="0" width="4" height="60"/>
    <rect x="34" y="0" width="8" height="60"/>
    <rect x="46" y="0" width="2" height="60"/>
    <rect x="52" y="0" width="4" height="60"/>
    <rect x="60" y="0" width="6" height="60"/>
    <rect x="70" y="0" width="2" height="60"/>
    <rect x="74" y="0" width="4" height="60"/>
    <rect x="80" y="0" width="8" height="60"/>
    <rect x="92" y="0" width="2" height="60"/>
    <rect x="96" y="0" width="4" height="60"/>
    <rect x="104" y="0" width="6" height="60"/>
    <rect x="114" y="0" width="2" height="60"/>
    <rect x="118" y="0" width="4" height="60"/>
    <rect x="124" y="0" width="8" height="60"/>
    <rect x="136" y="0" width="2" height="60"/>
    <rect x="140" y="0" width="4" height="60"/>
    <rect x="148" y="0" width="6" height="60"/>
    <rect x="158" y="0" width="2" height="60"/>
    <rect x="162" y="0" width="4" height="60"/>
    <rect x="168" y="0" width="8" height="60"/>
    <rect x="180" y="0" width="2" height="60"/>
    <rect x="184" y="0" width="4" height="60"/>
    <rect x="192" y="0" width="6" height="60"/>
    <rect x="202" y="0" width="2" height="60"/>
    <rect x="206" y="0" width="4" height="60"/>
    <rect x="212" y="0" width="8" height="60"/>
    <rect x="224" y="0" width="2" height="60"/>
    <rect x="228" y="0" width="4" height="60"/>
    <rect x="236" y="0" width="6" height="60"/>
    <rect x="246" y="0" width="2" height="60"/>
    <rect x="250" y="0" width="4" height="60"/>
    <rect x="256" y="0" width="8" height="60"/>
    <rect x="268" y="0" width="2" height="60"/>
    <rect x="272" y="0" width="4" height="60"/>
    <rect x="280" y="0" width="6" height="60"/>
    <rect x="290" y="0" width="2" height="60"/>
    <rect x="294" y="0" width="6" height="60"/>
  </g>
</svg>
